<?xml version="1.0" encoding="utf-8"?>
<!-- Generator: Adobe Illustrator 23.0.1, SVG Export Plug-In . SVG Version: 6.00 Build 0)  -->
<svg version="1.1" id="Layer_1" xmlns="http://www.w3.org/2000/svg" xmlns:xlink="http://www.w3.org/1999/xlink" x="0px" y="0px"
	 viewBox="0 0 1359 291" style="enable-background:new 0 0 1359 291;" xml:space="preserve">
<style type="text/css">
	.st0{fill:#FF4646;}
	.st1{fill:#FF5656;}
	.st2{fill:none;}
	.st3{fill:#505050;}
	.st4{font-family:'FuturaFuturisLightC';}
	.st5{font-size:200px;}
</style>
<g>
	<path class="st0" d="M61,12.9c45-0.5,89.9-1.2,134.9-1.9c23.8,44,47.9,87.9,71.7,131.9c-44.1,0-88.3,1.7-132.4,0.6
		C110.9,99.7,85.6,56.4,61,12.9z"/>
</g>
<g>
	<path class="st1" d="M135.1,143.5c44.1,1.1,88.3-0.6,132.4-0.6l0.7,0c-24.2,44-48.5,88-72.7,132c-45.1-0.5-90.3-1.2-135.4-1.8
		C85.2,229.9,109.9,186.5,135.1,143.5z"/>
</g>
<rect x="295.5" y="70.5" class="st2" width="1050.5" height="260"/>
<text transform="matrix(1 0 0 1 295.5 217.4971)" class="st3 st4 st5">QIKCOMP</text>
</svg>
