<?xml version="1.0" encoding="UTF-8" ?>
<!DOCTYPE svg PUBLIC "-//W3C//DTD SVG 1.1//EN" "http://www.w3.org/Graphics/SVG/1.1/DTD/svg11.dtd">
<svg width="547pt" height="283pt" viewBox="0 0 547 283" version="1.1" xmlns="http://www.w3.org/2000/svg">
<g id="#ffffffff">
<path fill="#ffffff" opacity="1.00" d=" M 261.44 43.67 C 308.59 36.68 356.76 70.82 366.46 117.30 C 376.00 155.30 358.84 197.83 326.03 219.06 C 297.86 238.35 258.96 240.39 229.04 223.87 C 198.13 207.83 177.67 173.91 178.09 139.05 C 176.86 92.27 215.06 48.96 261.44 43.67 M 253.50 79.44 C 237.89 90.67 235.77 112.85 242.69 129.64 C 237.83 129.91 232.93 129.51 228.12 130.36 C 227.22 135.38 227.25 140.61 228.13 145.63 C 234.62 146.12 241.20 144.96 247.64 146.19 C 249.60 160.08 243.25 174.79 230.99 181.94 C 223.90 184.95 227.24 194.04 227.04 200.03 C 255.65 200.57 284.37 200.56 312.97 200.04 C 313.51 193.04 313.51 185.96 312.97 178.97 C 295.71 178.18 278.37 178.89 261.08 178.66 C 268.49 169.43 271.58 157.78 270.21 146.01 C 278.73 145.06 287.33 146.10 295.87 145.63 C 296.86 140.47 296.51 135.15 296.03 129.96 C 286.20 129.03 276.29 130.15 266.45 129.51 C 262.95 118.37 260.44 102.32 271.95 94.93 C 281.18 89.49 292.42 93.56 299.02 101.14 C 303.96 97.10 308.34 92.38 312.71 87.74 C 300.30 68.87 271.12 66.60 253.50 79.44 Z" />
</g>
<g id="#4dcc6dff">
<path fill="#4dcc6d" opacity="1.00" d=" M 16.49 13.53 C 185.23 12.22 354.20 13.43 523.03 12.93 C 526.61 12.67 532.42 12.88 531.95 17.94 C 532.10 98.65 531.97 179.38 532.01 260.10 C 532.60 263.70 529.70 266.61 526.10 266.01 C 357.37 266.01 188.63 266.02 19.90 266.01 C 16.31 266.59 13.40 263.69 13.99 260.10 C 13.95 180.04 14.04 99.97 13.95 19.91 C 14.03 17.62 14.00 14.59 16.49 13.53 M 261.44 43.67 C 215.06 48.96 176.86 92.27 178.09 139.05 C 177.67 173.91 198.13 207.83 229.04 223.87 C 258.96 240.39 297.86 238.35 326.03 219.06 C 358.84 197.83 376.00 155.30 366.46 117.30 C 356.76 70.82 308.59 36.68 261.44 43.67 Z" />
<path fill="#4dcc6d" opacity="1.00" d=" M 253.50 79.44 C 271.12 66.60 300.30 68.87 312.71 87.74 C 308.34 92.38 303.96 97.10 299.02 101.14 C 292.42 93.56 281.18 89.49 271.95 94.93 C 260.44 102.32 262.95 118.37 266.45 129.51 C 276.29 130.15 286.20 129.03 296.03 129.96 C 296.51 135.15 296.86 140.47 295.87 145.63 C 287.33 146.10 278.73 145.06 270.21 146.01 C 271.58 157.78 268.49 169.43 261.08 178.66 C 278.37 178.89 295.71 178.18 312.97 178.97 C 313.51 185.96 313.51 193.04 312.97 200.04 C 284.37 200.56 255.65 200.57 227.04 200.03 C 227.24 194.04 223.90 184.95 230.99 181.94 C 243.25 174.79 249.60 160.08 247.64 146.19 C 241.20 144.96 234.62 146.12 228.13 145.63 C 227.25 140.61 227.22 135.38 228.12 130.36 C 232.93 129.51 237.83 129.91 242.69 129.64 C 235.77 112.85 237.89 90.67 253.50 79.44 Z" />
</g>
</svg>
