<?xml version="1.0" standalone="no"?>
<!DOCTYPE svg PUBLIC "-//W3C//DTD SVG 20010904//EN"
 "http://www.w3.org/TR/2001/REC-SVG-20010904/DTD/svg10.dtd">
<svg version="1.0" xmlns="http://www.w3.org/2000/svg"
 width="1164.000000pt" height="1164.000000pt" viewBox="0 0 1164.000000 1164.000000"
 preserveAspectRatio="xMidYMid meet">
<metadata>
Created by potrace 1.11, written by Peter Selinger 2001-2013
</metadata>
<g transform="translate(0.000000,1164.000000) scale(0.100000,-0.100000)"
fill="#000000" stroke="none">
<path d="M6926 11203 c-4 -4 -82 -8 -174 -9 -626 -7 -1005 -14 -1009 -18 -3
-3 -16 -1 -29 4 -13 5 -24 6 -24 2 0 -4 -111 -8 -248 -9 -539 -5 -799 -10
-810 -17 -7 -4 -12 -3 -12 1 0 10 -53 9 -69 -2 -6 -3 -11 -2 -11 4 0 7 -8 7
-25 1 -18 -7 -25 -6 -25 3 0 7 -3 8 -8 2 -8 -12 -32 -13 -49 -2 -7 5 -13 5
-13 0 0 -4 -125 -9 -278 -9 -682 -4 -1022 -10 -1022 -17 0 -4 -8 -3 -19 2 -10
6 -20 8 -23 6 -3 -3 -250 -8 -549 -11 -506 -6 -781 -10 -786 -13 -2 -1 77
-140 97 -171 6 -8 15 -26 21 -40 5 -13 13 -27 17 -30 4 -3 15 -21 24 -40 18
-35 38 -70 109 -192 21 -36 39 -71 39 -77 0 -6 5 -11 10 -11 6 0 10 -5 10 -11
0 -5 24 -51 54 -102 29 -51 65 -112 78 -137 14 -25 58 -101 97 -168 39 -68 71
-126 71 -128 0 -3 11 -21 24 -42 29 -45 110 -185 111 -192 1 -5 10 -20 103
-178 35 -59 62 -107 61 -107 -2 0 4 -11 13 -25 39 -62 88 -152 88 -161 0 -5 5
-9 10 -9 6 0 10 -4 10 -9 0 -5 86 -159 191 -342 258 -449 259 -451 266 -471 3
-10 9 -18 14 -18 5 0 9 -4 9 -8 0 -5 32 -64 71 -133 40 -68 83 -144 97 -169
14 -25 36 -62 49 -82 12 -21 23 -40 23 -42 0 -2 23 -43 50 -91 28 -48 50 -89
50 -91 0 -3 5 -10 10 -17 12 -13 190 -327 190 -334 0 -3 8 -17 18 -31 11 -15
33 -52 49 -82 52 -95 142 -254 153 -270 5 -8 26 -44 45 -80 20 -36 46 -83 58
-105 13 -22 40 -71 61 -110 21 -38 43 -71 47 -73 5 -2 9 -8 9 -14 0 -10 132
-250 176 -320 13 -21 24 -44 24 -52 0 -8 4 -16 8 -18 7 -3 91 -146 101 -173 2
-5 10 -18 19 -27 8 -10 11 -18 6 -18 -5 0 -4 -4 1 -8 10 -7 26 -35 70 -119 12
-23 28 -49 35 -58 7 -8 9 -15 4 -15 -5 0 -2 -4 6 -10 12 -8 12 -11 -1 -27 -17
-19 -109 -170 -109 -178 0 -3 -19 -35 -42 -72 -22 -38 -49 -83 -60 -100 -28
-51 -51 -91 -105 -183 -27 -47 -56 -96 -64 -110 -8 -14 -20 -33 -28 -42 -8
-10 -10 -18 -5 -18 5 0 4 -4 -2 -8 -6 -4 -28 -38 -50 -76 -46 -80 -66 -116
-154 -266 -36 -61 -71 -123 -79 -138 -8 -15 -18 -28 -23 -30 -4 -2 -8 -12 -8
-23 0 -10 -4 -19 -8 -19 -4 0 -20 -24 -35 -52 -16 -29 -64 -114 -108 -188 -44
-74 -84 -146 -90 -160 -6 -13 -14 -27 -18 -30 -10 -7 -101 -171 -101 -181 0
-5 -4 -9 -9 -9 -5 0 -11 -8 -14 -17 -3 -10 -22 -45 -41 -78 -20 -33 -55 -94
-78 -135 -23 -41 -45 -77 -50 -78 -4 -2 -8 -7 -8 -12 0 -5 -41 -80 -91 -167
-50 -87 -101 -176 -113 -198 -11 -22 -24 -42 -27 -45 -3 -3 -23 -36 -44 -75
-21 -38 -42 -71 -46 -73 -5 -2 -9 -12 -9 -23 0 -10 -4 -19 -8 -19 -5 0 -14
-16 -22 -35 -8 -19 -17 -35 -22 -35 -4 0 -8 -7 -8 -15 0 -8 -5 -15 -11 -15 -5
0 -7 -4 -4 -10 3 -5 2 -10 -2 -10 -5 0 -14 -12 -20 -28 -7 -15 -23 -45 -38
-67 -14 -22 -30 -52 -36 -67 -6 -16 -14 -28 -18 -28 -3 0 -12 -15 -20 -33 -8
-17 -17 -34 -21 -37 -4 -3 -13 -18 -22 -35 -15 -30 -150 -267 -168 -295 -6 -8
-20 -34 -32 -58 -12 -23 -26 -42 -31 -42 -4 0 -6 -4 -3 -9 3 -5 -1 -14 -9 -21
-8 -7 -15 -16 -15 -20 0 -5 -20 -43 -45 -84 -25 -42 -45 -81 -45 -86 0 -6 -3
-10 -7 -10 -5 0 -13 -10 -19 -23 -23 -47 -59 -112 -65 -117 -3 -3 -8 -12 -12
-20 -4 -8 -18 -33 -32 -55 -14 -22 -32 -53 -40 -70 -8 -16 -30 -55 -50 -85
-19 -30 -41 -68 -49 -85 -8 -16 -29 -52 -45 -80 -28 -46 -60 -102 -114 -200
-12 -22 -25 -42 -28 -45 -3 -3 -16 -25 -30 -50 -13 -25 -27 -47 -32 -48 -4 -2
-5 -8 -1 -13 3 -5 1 -9 -4 -9 -5 0 -12 -8 -15 -17 -7 -20 -49 -96 -64 -115 -6
-7 -22 -33 -35 -58 -14 -25 -37 -65 -52 -90 -15 -25 -33 -59 -41 -77 -8 -17
-19 -34 -25 -38 -5 -3 -10 -12 -10 -18 0 -9 52 -13 208 -14 506 -4 904 -11
909 -16 3 -3 15 -2 28 3 14 5 26 5 34 -3 8 -8 11 -8 11 2 0 7 4 9 10 6 5 -3
182 -8 392 -11 211 -3 505 -7 653 -9 149 -2 477 -7 730 -10 253 -3 593 -7 755
-10 162 -2 540 -7 840 -10 300 -4 612 -8 693 -9 l149 -2 25 51 c14 27 29 52
33 55 4 3 11 16 15 30 4 14 11 27 15 30 8 6 124 220 128 238 2 6 8 12 14 12 6
0 8 3 5 6 -4 4 2 19 13 34 11 16 20 30 20 33 0 2 24 47 53 98 29 52 61 112 72
134 11 22 23 42 26 45 3 3 27 44 52 92 25 47 55 101 65 120 10 18 49 89 87
158 38 69 83 151 102 183 18 32 33 62 33 68 0 5 5 9 10 9 6 0 9 3 8 8 -1 4 8
25 20 47 12 22 46 83 75 136 28 53 60 108 70 122 9 15 17 33 17 41 0 8 4 16 8
18 5 2 28 39 52 83 24 44 87 159 140 255 53 96 118 215 144 264 27 49 61 111
77 138 16 27 29 51 29 53 0 3 20 38 45 80 24 41 41 75 37 75 -4 0 -2 4 3 8 10
7 16 17 77 132 16 30 39 71 50 90 11 19 32 56 45 83 14 26 29 49 33 52 5 3 11
18 15 34 3 16 13 32 21 35 9 3 12 10 9 16 -3 5 -1 10 5 10 6 0 9 4 5 9 -3 5 1
15 8 23 7 7 23 36 37 63 14 28 28 52 31 55 4 3 21 34 39 70 18 36 35 67 39 70
4 3 15 25 26 49 11 24 24 49 30 55 5 6 21 34 34 61 14 28 27 52 30 55 3 3 17
28 31 55 14 28 28 52 33 53 4 2 7 7 7 12 0 4 20 43 43 86 24 44 61 111 82 149
21 39 55 99 75 135 20 36 40 72 44 80 3 8 17 33 29 55 34 59 85 150 127 230
20 39 52 95 70 125 18 30 36 64 41 75 5 11 20 38 32 60 13 22 43 76 66 120 24
44 47 85 51 90 4 6 25 44 47 85 22 41 52 96 67 122 26 48 33 74 17 63 -5 -3
-13 5 -17 17 -4 13 -9 25 -13 28 -3 3 -17 25 -30 50 -32 61 -89 167 -145 270
-26 47 -54 101 -64 120 -9 19 -19 37 -22 40 -3 3 -21 34 -39 70 -53 100 -55
105 -66 112 -5 4 -6 8 -1 8 5 0 2 8 -6 18 -9 9 -23 33 -32 52 -8 19 -33 67
-55 105 -22 39 -48 86 -58 105 -68 126 -123 229 -174 322 -33 59 -59 111 -59
117 0 6 -4 11 -8 11 -5 0 -14 16 -22 35 -8 19 -18 35 -22 35 -5 0 -7 4 -4 9 3
5 -1 14 -9 21 -8 7 -15 18 -15 24 0 6 -16 36 -34 66 -19 30 -32 58 -30 62 3 4
1 8 -5 8 -5 0 -15 16 -22 35 -7 19 -17 35 -21 35 -4 0 -8 5 -8 11 0 7 -13 34
-30 60 -16 27 -27 49 -23 49 3 0 -1 8 -10 18 -9 10 -23 33 -32 52 -8 19 -19
42 -24 50 -37 61 -56 96 -53 103 1 4 -3 7 -9 7 -5 0 -7 5 -4 10 3 6 1 10 -4
10 -6 0 -11 6 -11 14 0 8 -3 16 -7 18 -5 2 -19 27 -32 56 -14 28 -28 52 -33
52 -5 0 -6 5 -3 10 3 6 1 10 -5 10 -6 0 -9 4 -6 9 3 5 -1 14 -9 21 -8 7 -15
16 -15 20 0 4 -20 43 -44 86 -49 90 -122 225 -144 269 -9 17 -20 33 -26 37 -6
4 -8 8 -4 8 4 0 -13 34 -37 75 -25 41 -42 75 -39 75 3 0 -3 12 -14 28 -10 15
-43 72 -72 127 -29 55 -56 105 -60 110 -4 6 -28 48 -52 95 -25 47 -71 131
-102 187 -31 56 -56 106 -56 111 0 6 -4 12 -8 14 -4 2 -22 30 -39 63 -17 33
-49 93 -72 134 -22 41 -41 77 -41 82 0 4 -3 9 -7 11 -5 2 -20 28 -36 58 -15
30 -47 91 -72 135 -24 44 -51 94 -59 110 -8 17 -35 66 -60 110 -25 44 -56 103
-70 130 -14 28 -41 77 -59 110 -19 33 -50 89 -69 125 -19 36 -52 97 -73 135
-21 39 -51 94 -67 123 -32 59 -76 141 -120 222 -17 30 -39 73 -50 95 -12 22
-26 43 -32 47 -6 4 -50 7 -97 6 -47 -1 -90 1 -96 5 -6 4 -13 3 -17 0z"/>
</g>
</svg>
